<?xml version="1.0" encoding="UTF-8" standalone="no"?>
<!-- Created with Inkscape (http://www.inkscape.org/) -->

<svg
   width="200"
   height="200"
   viewBox="0 0 52.916665 52.916666"
   version="1.1"
   id="svg1"
   sodipodi:docname="bird_dead.svg"
   inkscape:version="1.4 (1:1.4+202410161351+e7c3feb100)"
   inkscape:export-filename="bird_dead.png"
   inkscape:export-xdpi="96"
   inkscape:export-ydpi="96"
   xmlns:inkscape="http://www.inkscape.org/namespaces/inkscape"
   xmlns:sodipodi="http://sodipodi.sourceforge.net/DTD/sodipodi-0.dtd"
   xmlns="http://www.w3.org/2000/svg"
   xmlns:svg="http://www.w3.org/2000/svg">
  <sodipodi:namedview
     id="namedview1"
     pagecolor="#ffffff"
     bordercolor="#666666"
     borderopacity="1.0"
     inkscape:showpageshadow="2"
     inkscape:pageopacity="0.0"
     inkscape:pagecheckerboard="0"
     inkscape:deskcolor="#d1d1d1"
     inkscape:document-units="mm"
     inkscape:zoom="2.2306958"
     inkscape:cx="45.053206"
     inkscape:cy="62.760686"
     inkscape:window-width="1600"
     inkscape:window-height="828"
     inkscape:window-x="0"
     inkscape:window-y="0"
     inkscape:window-maximized="1"
     inkscape:current-layer="layer1" />
  <defs
     id="defs1" />
  <g
     inkscape:label="Layer 1"
     inkscape:groupmode="layer"
     id="layer1">
    <path
       id="path14"
       style="fill:#cfff00;stroke-width:8.5;stroke-miterlimit:3.9"
       inkscape:transform-center-x="-0.94880535"
       inkscape:transform-center-y="-0.017164036"
       transform="translate(2.1942891,3.1431709)"
       d="m 41.513577,16.724041 0.05946,-6.6765 5.188891,0.320702 z"
       sodipodi:nodetypes="cccc" />
    <path
       id="path4"
       style="fill:#cfff00;stroke-width:8.5;stroke-miterlimit:3.9"
       inkscape:transform-center-x="-0.94880535"
       inkscape:transform-center-y="-0.017164036"
       transform="translate(2.1942891,3.1431709)"
       d="m 41.513577,16.724041 0.05946,-6.6765 5.218544,5.732294 z"
       sodipodi:nodetypes="cccc" />
    <ellipse
       style="fill:#0000ff;stroke-width:8.5;stroke-miterlimit:3.9"
       id="ellipse14"
       cx="34.722218"
       cy="16.774019"
       rx="10.399892"
       ry="7.8837886" />
    <g
       id="g10"
       style="display:inline">
      <path
         style="fill:none;stroke:#000000;stroke-width:0.264583px;stroke-linecap:butt;stroke-linejoin:miter;stroke-opacity:1"
         d="M 9.5611906,40.257645 5.853353,42.191063 3.6693166,42.375365"
         id="path7"
         sodipodi:nodetypes="ccc" />
      <path
         style="fill:none;stroke:#000000;stroke-width:0.264583px;stroke-linecap:butt;stroke-linejoin:miter;stroke-opacity:1"
         d="m 4.0257645,44.031799 1.8241744,-1.740305 0.1887078,2.075785"
         id="path8"
         sodipodi:nodetypes="ccc" />
    </g>
    <g
       id="g11"
       style="fill:#000000;fill-opacity:0"
       transform="translate(3.9418944,2.0128823)">
      <path
         style="fill:#000000;fill-opacity:0;stroke:#000000;stroke-width:0.264583px;stroke-linecap:butt;stroke-linejoin:miter;stroke-opacity:1"
         d="M 9.5611906,40.257645 5.853353,42.191063 3.6693166,42.375365"
         id="path10"
         sodipodi:nodetypes="ccc" />
      <path
         style="fill:#000000;fill-opacity:0;stroke:#000000;stroke-width:0.264583px;stroke-linecap:butt;stroke-linejoin:miter;stroke-opacity:1"
         d="m 4.0257645,44.031799 1.8241744,-1.740305 0.1887078,2.075785"
         id="path11"
         sodipodi:nodetypes="ccc" />
    </g>
    <ellipse
       style="fill:#0000ff;stroke-width:8.5;stroke-miterlimit:3.9"
       id="path1"
       cx="13.534245"
       cy="35.195892"
       rx="17.780458"
       ry="12.664384"
       transform="rotate(-15.555766)" />
    <ellipse
       style="fill:#a0892c;stroke-width:8.5;stroke-miterlimit:3.9"
       id="path2"
       cx="34.722218"
       cy="16.774019"
       rx="10.399892"
       ry="7.8837886" />
    <path
       style="fill:#a0892c;fill-opacity:1;stroke:none;stroke-width:0.264583px;stroke-linecap:butt;stroke-linejoin:miter;stroke-opacity:1"
       d="M 9.3934503,30.864194 0.53182312,26.579803 2.4849613,18.839628 Z"
       id="path6"
       sodipodi:nodetypes="cccc" />
    <ellipse
       style="fill:#d3bc5f;stroke-width:8.5;stroke-miterlimit:3.9"
       id="ellipse13"
       cx="13.534245"
       cy="35.195892"
       rx="17.780458"
       ry="12.664384"
       transform="rotate(-15.555766)" />
    <path
       sodipodi:type="star"
       style="fill:#242218;fill-opacity:0;stroke:none;stroke-width:8.5;stroke-miterlimit:3.9;stroke-opacity:1"
       id="path15"
       inkscape:flatsided="true"
       sodipodi:sides="3"
       sodipodi:cx="22.891773"
       sodipodi:cy="29.059505"
       sodipodi:r1="29.280394"
       sodipodi:r2="14.640197"
       sodipodi:arg1="0.75961591"
       sodipodi:arg2="1.8068135"
       inkscape:rounded="0"
       inkscape:randomized="0"
       d="M 44.123003,49.223243 -5.186151,37.364421 29.738467,0.59085205 Z"
       inkscape:transform-center-x="3.4233471"
       inkscape:transform-center-y="-4.1524577" />
    <path
       id="path16"
       style="display:none;fill:#786721;fill-opacity:1;stroke:none;stroke-miterlimit:3.9;stroke-opacity:1"
       inkscape:transform-center-x="3.2889648"
       inkscape:transform-center-y="7.3615074"
       d="M 34.433772,46.681788 C 31.012616,45.707421 29.080293,44.580878 23.944664,40.381624 18.991368,36.331458 13.113112,30.020239 13.113112,30.020239 c 0,0 6.684074,0.639311 9.768459,-0.413344 2.502677,-0.854127 6.477411,-4.580333 6.477411,-4.580333 0,0 3.315153,7.017133 4.141226,10.77532 0.816564,3.714928 4.603851,11.925227 0.933564,10.879906 z"
       sodipodi:nodetypes="sscacss" />
    <path
       style="display:none;fill:#786721;fill-opacity:1;stroke:none;stroke-width:0.264583px;stroke-linecap:butt;stroke-linejoin:miter;stroke-opacity:1"
       d="m 13.083734,30.193234 c 0,0 5.370486,6.976677 9.225711,8.722489 1.918337,0.868706 4.325591,1.345218 6.290256,0.587089 2.086085,-0.804983 4.137629,-2.746838 4.528987,-4.948335 0.618801,-3.480926 -4.025765,-9.8128 -4.025765,-9.8128 0,0 -2.441108,2.88672 -4.025765,3.858024 -1.085497,0.665347 -2.355621,1.020341 -3.606414,1.258052 -2.748706,0.522387 -8.38701,0.335481 -8.38701,0.335481 z"
       id="path19"
       sodipodi:nodetypes="caaacaac" />
    <path
       style="display:inline;fill:#786721;fill-opacity:1;stroke:none;stroke-width:0.264583px;stroke-linecap:butt;stroke-linejoin:miter;stroke-opacity:1"
       d="m 13.284345,30.364218 c 0,0 7.456762,4.04032 10.91214,2.609424 3.000905,-1.242696 5.10024,-8.302716 5.10024,-8.302716 0,0 -3.709389,4.01172 -6.167732,4.981629 -3.060523,1.207492 -9.844648,0.711663 -9.844648,0.711663 z"
       id="path17"
       sodipodi:nodetypes="cacac" />
    <path
       id="path12"
       style="display:none;fill:#786721;fill-opacity:1;stroke:none;stroke-miterlimit:3.9;stroke-opacity:1"
       inkscape:transform-center-x="3.2889648"
       inkscape:transform-center-y="7.3615074"
       d="m 32.169279,43.075374 c -3.404914,1.029686 -6.61153,-2.10091 -11.747159,-6.300164 -4.953296,-4.050166 -7.309008,-6.754971 -7.309008,-6.754971 0,0 6.684074,0.639311 9.768459,-0.413344 2.502677,-0.854127 6.477411,-4.580333 6.477411,-4.580333 0,0 2.057102,3.830069 2.883175,7.588256 0.816564,3.714928 3.68128,9.325255 -0.07288,10.460556 z"
       sodipodi:nodetypes="sscacss" />
    <path
       style="fill:none;stroke:#000000;stroke-width:1;stroke-linecap:butt;stroke-linejoin:miter;stroke-opacity:1;stroke-dasharray:none"
       d="m 35.812528,15.264357 c 4.654791,-4.65479 4.654791,-4.65479 4.654791,-4.65479"
       id="path5" />
    <path
       style="fill:none;stroke:#000000;stroke-width:1;stroke-linecap:butt;stroke-linejoin:miter;stroke-dasharray:none;stroke-opacity:1"
       d="m 40.467319,15.264357 c -4.654791,-4.65479 -4.654791,-4.65479 -4.654791,-4.65479"
       id="path13" />
  </g>
</svg>
